<svg xmlns="http://www.w3.org/2000/svg" xmlns:xlink="http://www.w3.org/1999/xlink" width="500" zoomAndPan="magnify" viewBox="0 0 375 374.999991" height="500" preserveAspectRatio="xMidYMid meet" version="1.0"><defs><g/></defs><rect x="-37.5" width="450" fill="#ffffff" y="-37.499999" height="449.999989" fill-opacity="1"/><rect x="-37.5" width="450" fill="#ffffff" y="-37.499999" height="449.999989" fill-opacity="1"/><rect x="-37.5" width="450" fill="#ffa726" y="-37.499999" height="449.999989" fill-opacity="1"/><path fill="#000000" d="M 62.902344 189.902344 C 64.644531 188.152344 67.265625 187.628906 69.542969 188.578125 C 71.824219 189.523438 73.308594 191.75 73.308594 194.222656 L 73.308594 209.5 L 146.457031 209.5 C 149.820312 209.5 152.550781 212.234375 152.550781 215.609375 L 152.550781 258.390625 C 152.550781 261.765625 149.820312 264.5 146.457031 264.5 L 73.308594 264.5 L 73.308594 279.777344 C 73.308594 282.25 71.824219 284.476562 69.542969 285.425781 C 67.265625 286.371094 64.644531 285.847656 62.902344 284.097656 L 20.230469 241.320312 C 17.851562 238.933594 17.851562 235.066406 20.230469 232.679688 Z M 62.902344 189.902344 " fill-opacity="1" fill-rule="evenodd"/><g fill="#000000" fill-opacity="1"><g transform="translate(17.318985, 102.99874)"><g><path d="M 15.332031 0 C 21.679688 0 27.5625 -4.078125 27.5625 -11.117188 C 27.5625 -14.453125 25.988281 -17.417969 22.882812 -19.546875 C 24.550781 -21.078125 25.339844 -22.976562 25.339844 -25.386719 C 25.339844 -31.824219 20.753906 -34.511719 14.359375 -34.511719 L 3.289062 -34.511719 L 3.289062 0 Z M 10.46875 -6.484375 L 10.46875 -15.378906 L 15.566406 -15.378906 C 18.527344 -15.378906 20.195312 -13.664062 20.195312 -10.886719 C 20.195312 -8.199219 18.527344 -6.484375 15.566406 -6.484375 Z M 10.46875 -21.632812 L 10.46875 -28.027344 L 14.082031 -28.027344 C 16.074219 -28.027344 17.972656 -27.46875 17.972656 -24.828125 C 17.972656 -23.394531 17.554688 -21.632812 14.082031 -21.632812 Z M 10.46875 -21.632812 "/></g></g></g><g fill="#000000" fill-opacity="1"><g transform="translate(48.355455, 102.99874)"><g><path d="M 18.527344 -23.394531 L 18.527344 -21.773438 C 17.511719 -22.882812 14.917969 -23.902344 12.832031 -23.902344 C 6.578125 -23.902344 1.34375 -18.4375 1.34375 -11.671875 C 1.34375 -5.003906 6.4375 0.507812 12.832031 0.507812 C 14.960938 0.507812 17.511719 -0.324219 18.527344 -1.667969 L 18.527344 0 L 25.105469 0 L 25.105469 -23.394531 Z M 13.480469 -6.023438 C 10.46875 -6.023438 8.015625 -8.339844 8.015625 -11.671875 C 8.015625 -14.960938 10.46875 -17.324219 13.480469 -17.324219 C 16.539062 -17.324219 18.808594 -14.960938 18.808594 -11.671875 C 18.808594 -8.339844 16.539062 -6.023438 13.480469 -6.023438 Z M 13.480469 -6.023438 "/></g></g></g><g fill="#000000" fill-opacity="1"><g transform="translate(77.400037, 102.99874)"><g><path d="M 8.339844 -9.402344 C 9.820312 -9.171875 10.421875 -8.523438 10.421875 -7.597656 C 10.421875 -6.71875 9.867188 -6.023438 8.664062 -6.023438 C 7.644531 -6.023438 6.808594 -6.300781 6.113281 -7.042969 L 0.554688 -3.011719 C 1.714844 -1.667969 3.105469 -0.695312 4.679688 -0.09375 L 1.667969 7.226562 L 16.675781 7.226562 L 16.675781 1.621094 L 9.867188 1.621094 L 10.328125 0.371094 C 14.5 -0.230469 17.601562 -3.289062 17.601562 -7.503906 C 17.601562 -12.320312 14.3125 -14.546875 10.003906 -15.101562 C 8.058594 -15.332031 7.503906 -15.796875 7.503906 -16.582031 C 7.503906 -17.277344 8.015625 -17.789062 8.894531 -17.789062 C 9.773438 -17.789062 10.421875 -17.371094 11.023438 -16.816406 L 15.75 -20.242188 C 14.082031 -22.652344 11.765625 -23.902344 8.753906 -23.902344 C 5.28125 -23.902344 1.066406 -20.890625 1.066406 -16.816406 C 1.066406 -12.832031 4.078125 -10.003906 8.339844 -9.402344 Z M 8.339844 -9.402344 "/></g></g></g><g fill="#000000" fill-opacity="1"><g transform="translate(97.643234, 102.99874)"><g><path d="M 2.316406 -34.511719 L 2.316406 0 L 8.894531 0 L 8.894531 -34.511719 Z M 2.316406 -34.511719 "/></g></g></g><g fill="#000000" fill-opacity="1"><g transform="translate(110.474729, 102.99874)"><g><path d="M 18.527344 -23.394531 L 18.527344 -21.773438 C 17.511719 -22.882812 14.917969 -23.902344 12.832031 -23.902344 C 6.578125 -23.902344 1.34375 -18.4375 1.34375 -11.671875 C 1.34375 -5.003906 6.4375 0.507812 12.832031 0.507812 C 14.960938 0.507812 17.511719 -0.324219 18.527344 -1.667969 L 18.527344 0 L 25.105469 0 L 25.105469 -23.394531 Z M 13.480469 -6.023438 C 10.46875 -6.023438 8.015625 -8.339844 8.015625 -11.671875 C 8.015625 -14.960938 10.46875 -17.324219 13.480469 -17.324219 C 16.539062 -17.324219 18.808594 -14.960938 18.808594 -11.671875 C 18.808594 -8.339844 16.539062 -6.023438 13.480469 -6.023438 Z M 13.480469 -6.023438 "/></g></g></g><g fill="#000000" fill-opacity="1"><g transform="translate(139.519309, 102.99874)"><g><path d="M 25.152344 -11.671875 C 25.152344 -14.777344 27.332031 -17.324219 30.203125 -17.324219 C 32.84375 -17.324219 35.019531 -15.242188 35.019531 -11.671875 L 35.019531 0 L 41.550781 0 L 41.550781 -11.671875 C 41.550781 -18.4375 38.078125 -23.902344 30.898438 -23.902344 C 28.488281 -23.902344 24.78125 -23.160156 22.558594 -20.195312 C 21.167969 -22.328125 18.066406 -23.902344 14.636719 -23.902344 C 12.601562 -23.902344 9.960938 -23.070312 8.894531 -21.773438 L 8.894531 -23.394531 L 2.316406 -23.394531 L 2.316406 0 L 8.894531 0 L 8.894531 -11.671875 C 8.894531 -14.777344 11.070312 -17.324219 13.527344 -17.324219 C 16.492188 -17.324219 18.574219 -15.703125 18.574219 -11.671875 L 18.574219 0 L 25.152344 0 Z M 25.152344 -11.671875 "/></g></g></g><g fill="#000000" fill-opacity="1"><g transform="translate(184.684328, 102.99874)"><g><path d="M 18.527344 -23.394531 L 18.527344 -21.773438 C 17.511719 -22.882812 14.917969 -23.902344 12.832031 -23.902344 C 6.578125 -23.902344 1.34375 -18.4375 1.34375 -11.671875 C 1.34375 -5.003906 6.4375 0.507812 12.832031 0.507812 C 14.960938 0.507812 17.511719 -0.324219 18.527344 -1.667969 L 18.527344 0 L 25.105469 0 L 25.105469 -23.394531 Z M 13.480469 -6.023438 C 10.46875 -6.023438 8.015625 -8.339844 8.015625 -11.671875 C 8.015625 -14.960938 10.46875 -17.324219 13.480469 -17.324219 C 16.539062 -17.324219 18.808594 -14.960938 18.808594 -11.671875 C 18.808594 -8.339844 16.539062 -6.023438 13.480469 -6.023438 Z M 13.480469 -6.023438 "/></g></g></g><g fill="#000000" fill-opacity="1"><g transform="translate(213.728916, 102.99874)"><g><path d="M 10.746094 -8.246094 L 19.132812 0 L 27.515625 0 L 15.242188 -12.460938 L 27.007812 -23.394531 L 18.851562 -23.394531 L 8.894531 -14.082031 L 8.894531 -34.511719 L 2.316406 -34.511719 L 2.316406 0 L 8.894531 0 L 8.894531 -6.484375 Z M 10.746094 -8.246094 "/></g></g></g><g fill="#000000" fill-opacity="1"><g transform="translate(263.711537, 102.99874)"><g><path d="M 5.558594 -27.515625 C 7.78125 -27.515625 9.496094 -29.230469 9.496094 -31.269531 C 9.496094 -33.167969 7.78125 -34.882812 5.558594 -34.882812 C 3.519531 -34.882812 1.761719 -33.121094 1.761719 -31.269531 C 1.761719 -29.230469 3.519531 -27.515625 5.558594 -27.515625 Z M 8.894531 -23.394531 L 2.316406 -23.394531 L 2.316406 0 L 8.894531 0 Z M 8.894531 -23.394531 "/></g></g></g><g fill="#000000" fill-opacity="1"><g transform="translate(276.543031, 102.99874)"><g><path d="M 19.039062 -10.746094 C 18.621094 -7.921875 16.351562 -6.023438 13.480469 -6.023438 C 10.46875 -6.023438 8.015625 -8.339844 8.015625 -11.671875 C 8.015625 -14.960938 10.46875 -17.324219 13.480469 -17.324219 C 15.101562 -17.324219 16.816406 -16.628906 17.789062 -15.195312 L 23.070312 -19.316406 C 20.800781 -22.097656 17.324219 -23.902344 13.480469 -23.902344 C 6.761719 -23.902344 1.34375 -18.4375 1.34375 -11.671875 C 1.34375 -6.347656 4.769531 -1.804688 9.542969 -0.183594 L 4.632812 7.226562 L 21.492188 7.226562 L 21.492188 1.621094 L 14.683594 1.621094 L 15.65625 0.277344 C 21.078125 -0.648438 25.386719 -5.1875 25.800781 -10.746094 Z M 19.039062 -10.746094 "/></g></g></g><g fill="#000000" fill-opacity="1"><g transform="translate(305.309662, 102.99874)"><g><path d="M 5.558594 -27.515625 C 7.78125 -27.515625 9.496094 -29.230469 9.496094 -31.269531 C 9.496094 -33.167969 7.78125 -34.882812 5.558594 -34.882812 C 3.519531 -34.882812 1.761719 -33.121094 1.761719 -31.269531 C 1.761719 -29.230469 3.519531 -27.515625 5.558594 -27.515625 Z M 8.894531 -23.394531 L 2.316406 -23.394531 L 2.316406 0 L 8.894531 0 Z M 8.894531 -23.394531 "/></g></g></g><g fill="#000000" fill-opacity="1"><g transform="translate(318.141156, 102.99874)"><g><path d="M 25.894531 -11.671875 C 25.894531 -18.4375 21.449219 -23.902344 15.054688 -23.902344 C 12.925781 -23.902344 10.191406 -23.253906 8.894531 -21.773438 L 8.894531 -23.394531 L 2.316406 -23.394531 L 2.316406 0 L 8.894531 0 L 8.894531 -11.671875 C 8.894531 -15.425781 11.582031 -17.324219 14.5 -17.324219 C 17.1875 -17.324219 19.363281 -15.425781 19.363281 -11.671875 L 19.363281 0 L 25.894531 0 Z M 25.894531 -11.671875 "/></g></g></g><path fill="#000000" d="M 312.097656 189.902344 C 310.355469 188.152344 307.734375 187.628906 305.453125 188.578125 C 303.175781 189.523438 301.691406 191.75 301.691406 194.222656 L 301.691406 209.5 L 228.542969 209.5 C 225.175781 209.5 222.449219 212.234375 222.449219 215.609375 L 222.449219 258.390625 C 222.449219 261.765625 225.175781 264.5 228.542969 264.5 L 301.691406 264.5 L 301.691406 279.777344 C 301.691406 282.25 303.175781 284.476562 305.453125 285.425781 C 307.734375 286.371094 310.355469 285.847656 312.097656 284.097656 L 354.769531 241.320312 C 357.148438 238.933594 357.148438 235.066406 354.769531 232.679688 Z M 312.097656 189.902344 " fill-opacity="1" fill-rule="evenodd"/></svg>