<svg xmlns="http://www.w3.org/2000/svg" xmlns:xlink="http://www.w3.org/1999/xlink" width="500" zoomAndPan="magnify" viewBox="0 0 375 374.999991" height="500" preserveAspectRatio="xMidYMid meet" version="1.0"><defs><clipPath id="id1"><path d="M 29 138.09375 L 163.710938 138.09375 L 163.710938 237 L 29 237 Z M 29 138.09375 " clip-rule="nonzero"/></clipPath><clipPath id="id2"><path d="M 216.058594 138.09375 L 351 138.09375 L 351 237 L 216.058594 237 Z M 216.058594 138.09375 " clip-rule="nonzero"/></clipPath></defs><rect x="-37.5" width="450" fill="#ffffff" y="-37.499999" height="449.999989" fill-opacity="1"/><rect x="-37.5" width="450" fill="#ffffff" y="-37.499999" height="449.999989" fill-opacity="1"/><rect x="-37.5" width="450" fill="#ffa726" y="-37.499999" height="449.999989" fill-opacity="1"/><g clip-path="url(#id1)"><path fill="#000000" d="M 73.542969 140.496094 C 75.285156 138.75 77.90625 138.226562 80.183594 139.171875 C 82.464844 140.117188 83.949219 142.34375 83.949219 144.816406 L 83.949219 160.09375 L 157.097656 160.09375 C 160.460938 160.09375 163.191406 162.832031 163.191406 166.207031 L 163.191406 208.984375 C 163.191406 212.359375 160.460938 215.09375 157.097656 215.09375 L 83.949219 215.09375 L 83.949219 230.371094 C 83.949219 232.84375 82.464844 235.074219 80.183594 236.019531 C 77.90625 236.964844 75.285156 236.441406 73.542969 234.695312 L 30.871094 191.917969 C 28.492188 189.53125 28.492188 185.660156 30.871094 183.273438 Z M 73.542969 140.496094 " fill-opacity="1" fill-rule="evenodd"/></g><g clip-path="url(#id2)"><path fill="#000000" d="M 306.226562 140.496094 C 304.484375 138.75 301.863281 138.226562 299.585938 139.171875 C 297.304688 140.117188 295.820312 142.34375 295.820312 144.816406 L 295.820312 160.09375 L 222.671875 160.09375 C 219.308594 160.09375 216.578125 162.832031 216.578125 166.207031 L 216.578125 208.984375 C 216.578125 212.359375 219.308594 215.09375 222.671875 215.09375 L 295.820312 215.09375 L 295.820312 230.371094 C 295.820312 232.84375 297.304688 235.074219 299.585938 236.019531 C 301.863281 236.964844 304.484375 236.441406 306.226562 234.695312 L 348.898438 191.917969 C 351.277344 189.53125 351.277344 185.660156 348.898438 183.273438 Z M 306.226562 140.496094 " fill-opacity="1" fill-rule="evenodd"/></g></svg>