<svg xmlns="http://www.w3.org/2000/svg" xmlns:xlink="http://www.w3.org/1999/xlink" width="500" zoomAndPan="magnify" viewBox="0 0 375 374.999991" height="500" preserveAspectRatio="xMidYMid meet" version="1.0"><rect x="-37.5" width="450" fill="#ffffff" y="-37.499999" height="449.999989" fill-opacity="1"/><rect x="-37.5" width="450" fill="#ffffff" y="-37.499999" height="449.999989" fill-opacity="1"/><rect x="-37.5" width="450" fill="#ffa726" y="-37.499999" height="449.999989" fill-opacity="1"/><path fill="#000000" d="M 148.4375 105.207031 C 151.492188 102.148438 156.085938 101.234375 160.074219 102.890625 C 164.0625 104.546875 166.664062 108.445312 166.664062 112.769531 L 166.664062 139.507812 L 294.785156 139.507812 C 300.683594 139.507812 305.460938 144.296875 305.460938 150.203125 L 305.460938 225.0625 C 305.460938 230.96875 300.683594 235.757812 294.785156 235.757812 L 166.664062 235.757812 L 166.664062 262.492188 C 166.664062 266.820312 164.0625 270.71875 160.074219 272.375 C 156.085938 274.027344 151.492188 273.113281 148.4375 270.054688 L 73.699219 195.195312 C 69.53125 191.019531 69.53125 184.246094 73.699219 180.070312 Z M 148.4375 105.207031 " fill-opacity="1" fill-rule="evenodd"/></svg>