<svg xmlns="http://www.w3.org/2000/svg" xmlns:xlink="http://www.w3.org/1999/xlink" width="500" zoomAndPan="magnify" viewBox="0 0 375 374.999991" height="500" preserveAspectRatio="xMidYMid meet" version="1.0"><rect x="-37.5" width="450" fill="#ffffff" y="-37.499999" height="449.999989" fill-opacity="1"/><rect x="-37.5" width="450" fill="#ffffff" y="-37.499999" height="449.999989" fill-opacity="1"/><rect x="-37.5" width="450" fill="#ffa726" y="-37.499999" height="449.999989" fill-opacity="1"/><path fill="#000000" d="M 226.554688 105.207031 C 223.5 102.148438 218.90625 101.234375 214.917969 102.890625 C 210.929688 104.546875 208.328125 108.445312 208.328125 112.769531 L 208.328125 139.507812 L 80.207031 139.507812 C 74.308594 139.507812 69.53125 144.296875 69.53125 150.203125 L 69.53125 225.0625 C 69.53125 230.96875 74.308594 235.757812 80.207031 235.757812 L 208.328125 235.757812 L 208.328125 262.492188 C 208.328125 266.820312 210.929688 270.71875 214.917969 272.375 C 218.90625 274.027344 223.5 273.113281 226.554688 270.054688 L 301.289062 195.195312 C 305.460938 191.019531 305.460938 184.246094 301.289062 180.070312 Z M 226.554688 105.207031 " fill-opacity="1" fill-rule="evenodd"/></svg>