<svg id="Component_1_1" data-name="Component 1 – 1" xmlns="http://www.w3.org/2000/svg" width="254" height="226" viewBox="0 0 254 226">
  <rect id="Rectangle_1" data-name="Rectangle 1" width="254" height="226" fill="#5cb3fe"/>
  <g id="Path_1" data-name="Path 1" transform="translate(68 54)" fill="#5cb3fe">
    <path d="M 58.8382568359375 113.176513671875 C 51.50065612792969 113.176513671875 44.38493728637695 111.7404403686523 37.68873596191406 108.9081954956055 C 34.46993637084961 107.546760559082 31.36507606506348 105.8614349365234 28.46035766601562 103.899055480957 C 25.58209609985352 101.9545364379883 22.87533760070801 99.72123718261719 20.41531753540039 97.26119995117188 C 17.95527648925781 94.80117797851562 15.72197723388672 92.09441375732422 13.77745723724365 89.21615600585938 C 11.81507682800293 86.31143951416016 10.12975692749023 83.20657348632812 8.768317222595215 79.98777770996094 C 5.936076641082764 73.29158020019531 4.499996662139893 66.17585754394531 4.499996662139893 58.8382568359375 C 4.499996662139893 51.50065612792969 5.936076641082764 44.38493728637695 8.768317222595215 37.68873596191406 C 10.12975692749023 34.46993637084961 11.81507682800293 31.36507606506348 13.77745723724365 28.46035766601562 C 15.72197723388672 25.58209609985352 17.95527648925781 22.87533760070801 20.41531753540039 20.41531753540039 C 22.87533760070801 17.95527648925781 25.58209609985352 15.72197723388672 28.46035766601562 13.77745723724365 C 31.36507606506348 11.81507682800293 34.46993637084961 10.12975692749023 37.68873596191406 8.768317222595215 C 44.38493728637695 5.936076641082764 51.50065612792969 4.499996662139893 58.8382568359375 4.499996662139893 C 66.17585754394531 4.499996662139893 73.29158020019531 5.936076641082764 79.98777770996094 8.768317222595215 C 83.20657348632812 10.12975692749023 86.31145477294922 11.81507682800293 89.21615600585938 13.77745723724365 C 92.09443664550781 15.72197723388672 94.80117797851562 17.95527648925781 97.26121520996094 20.41531753540039 C 99.72123718261719 22.87533760070801 101.9545364379883 25.58209609985352 103.899055480957 28.46035766601562 C 105.8614349365234 31.36507606506348 107.546760559082 34.46993637084961 108.9081954956055 37.68873596191406 C 111.7404403686523 44.38493728637695 113.176513671875 51.50065612792969 113.176513671875 58.8382568359375 C 113.176513671875 66.17585754394531 111.7404403686523 73.29158020019531 108.9081954956055 79.98777770996094 C 107.546760559082 83.20657348632812 105.8614349365234 86.31143951416016 103.899055480957 89.21615600585938 C 101.9545364379883 92.09441375732422 99.72123718261719 94.80117797851562 97.26121520996094 97.26119995117188 C 94.80117797851562 99.72123718261719 92.09443664550781 101.9545364379883 89.21615600585938 103.899055480957 C 86.31145477294922 105.8614349365234 83.20657348632812 107.546760559082 79.98777770996094 108.9081954956055 C 73.29158020019531 111.7404403686523 66.17585754394531 113.176513671875 58.8382568359375 113.176513671875 Z" stroke="none"/>
    <path d="M 58.8382568359375 8.999992370605469 C 31.35735321044922 8.999992370605469 8.999992370605469 31.35735321044922 8.999992370605469 58.8382568359375 C 8.999992370605469 86.31916046142578 31.35735321044922 108.6765213012695 58.8382568359375 108.6765213012695 C 86.31916046142578 108.6765213012695 108.6765213012695 86.31916046142578 108.6765213012695 58.8382568359375 C 108.6765213012695 31.35735321044922 86.31916046142578 8.999992370605469 58.8382568359375 8.999992370605469 M 58.8382568359375 -7.62939453125e-06 C 91.33373260498047 -7.62939453125e-06 117.6765213012695 26.34278106689453 117.6765213012695 58.8382568359375 C 117.6765213012695 91.33370971679688 91.33373260498047 117.6765213012695 58.8382568359375 117.6765213012695 C 26.34278106689453 117.6765213012695 -7.62939453125e-06 91.33370971679688 -7.62939453125e-06 58.8382568359375 C -7.62939453125e-06 26.34278106689453 26.34278106689453 -7.62939453125e-06 58.8382568359375 -7.62939453125e-06 Z" stroke="none" fill="#fea85c"/>
  </g>
  <path id="Path_2" data-name="Path 2" d="M81.895,132.338s-39.993,57.077-72.225,0" transform="translate(81 -11)" fill="none" stroke="#fea85c" stroke-width="5"/>
  <path id="Path_3" data-name="Path 3" d="M8,0A8,8,0,1,1,0,8,8,8,0,0,1,8,0Z" transform="translate(102 87)" fill="#fea85c"/>
  <path id="Path_4" data-name="Path 4" d="M8,0A8,8,0,1,1,0,8,8,8,0,0,1,8,0Z" transform="translate(135 87)" fill="#fea85c"/>
  <line id="Line_1" data-name="Line 1" y1="33" x2="45" transform="translate(176.5 29.5)" fill="none" stroke="#fea85c" stroke-width="5"/>
  <line id="Line_2" data-name="Line 2" y1="30" x2="7" transform="translate(151.5 16.5)" fill="none" stroke="#fea85c" stroke-width="5"/>
  <line id="Line_3" data-name="Line 3" x1="34" y1="30" transform="translate(68.5 16.5)" fill="none" stroke="#fea85c" stroke-width="5"/>
  <line id="Line_4" data-name="Line 4" x1="45" y1="11" transform="translate(23.5 62.5)" fill="none" stroke="#fea85c" stroke-width="5"/>
  <line id="Line_5" data-name="Line 5" x1="31" y2="25" transform="translate(23.5 121.5)" fill="none" stroke="#fea85c" stroke-width="5"/>
  <line id="Line_6" data-name="Line 6" x1="31" y2="30" transform="translate(54.5 175.5)" fill="none" stroke="#fea85c" stroke-width="5"/>
  <line id="Line_7" data-name="Line 7" x2="16" y2="30" transform="translate(135.5 175.5)" fill="none" stroke="#fea85c" stroke-width="5"/>
  <line id="Line_8" data-name="Line 8" x2="41" y2="13" transform="translate(180.5 171.5)" fill="none" stroke="#fea85c" stroke-width="5"/>
  <line id="Line_9" data-name="Line 9" x2="44" transform="translate(199.5 121.5)" fill="none" stroke="#fea85c" stroke-width="5"/>
  <line id="Line_10" data-name="Line 10" y1="19" x2="44" transform="translate(199.5 68.5)" fill="none" stroke="#fea85c" stroke-width="5"/>
</svg>
